<?xml version="1.0" encoding="utf-8"?>
<!-- Generator: Adobe Illustrator 23.0.2, SVG Export Plug-In . SVG Version: 6.00 Build 0)  -->
<svg version="1.1" id="Layer_1" xmlns="http://www.w3.org/2000/svg" xmlns:xlink="http://www.w3.org/1999/xlink" x="0px" y="0px"
	 viewBox="0 0 326.09 114.13" style="enable-background:new 0 0 326.09 114.13;" xml:space="preserve">
<style type="text/css">
	.st0{fill:none;stroke:#FFFFFF;stroke-width:2.0134;stroke-miterlimit:10;}
	.st1{fill:#FFFFFF;}
</style>
<g>
	<g>
		<path class="st0" d="M165.79,49.82L165.79,49.82c-8.73,8.73-22.89,8.73-31.63,0l0,0c-7.56-7.56-7.56-19.81,0-27.37l15.81-15.81
			l15.81,15.81C173.35,30.01,173.35,42.26,165.79,49.82z"/>
		<polyline class="st0" points="163.99,51.62 149.98,37.61 135.97,51.62 		"/>
		<polyline class="st0" points="168.44,47.18 149.98,28.72 131.52,47.18 		"/>
		<polyline class="st0" points="170.87,40.81 149.98,19.91 129.07,40.82 		"/>
		<line class="st0" x1="149.98" y1="6.64" x2="149.98" y2="19.75"/>
		<line class="st0" x1="149.98" y1="37.61" x2="149.98" y2="55.81"/>
	</g>
	<g>
		<path class="st0" d="M134.17,63.5L134.17,63.5c8.73-8.73,22.89-8.73,31.63,0l0,0c7.56,7.56,7.56,19.81,0,27.37l-15.81,15.81
			l-15.81-15.81C126.61,83.31,126.61,71.05,134.17,63.5z"/>
		<polyline class="st0" points="135.97,61.69 149.98,75.7 163.99,61.69 		"/>
		<polyline class="st0" points="131.52,66.14 149.98,84.59 168.44,66.14 		"/>
		<polyline class="st0" points="129.08,72.51 149.98,93.4 170.88,72.5 		"/>
		<line class="st0" x1="149.98" y1="106.68" x2="149.98" y2="93.56"/>
		<line class="st0" x1="149.98" y1="75.7" x2="149.98" y2="57.51"/>
	</g>
	<g>
		<path class="st0" d="M156.82,72.47L156.82,72.47c-8.73-8.73-8.73-22.89,0-31.63l0,0c7.56-7.56,19.81-7.56,27.37,0L200,56.66
			l-15.81,15.81C176.63,80.03,164.38,80.03,156.82,72.47z"/>
		<polyline class="st0" points="155.01,70.67 169.02,56.66 155.01,42.65 		"/>
		<polyline class="st0" points="159.46,75.11 177.92,56.66 159.46,38.2 		"/>
		<polyline class="st0" points="165.83,77.55 186.73,56.66 165.82,35.75 		"/>
		<line class="st0" x1="200" y1="56.66" x2="186.89" y2="56.66"/>
		<line class="st0" x1="169.02" y1="56.66" x2="150.83" y2="56.66"/>
	</g>
	<g>
		<path class="st0" d="M143.14,40.84L143.14,40.84c8.73,8.73,8.73,22.89,0,31.63v0c-7.56,7.56-19.81,7.56-27.37,0L99.96,56.66
			l15.81-15.81C123.33,33.29,135.58,33.29,143.14,40.84z"/>
		<polyline class="st0" points="144.95,42.65 130.94,56.66 144.95,70.67 		"/>
		<polyline class="st0" points="140.5,38.2 122.04,56.66 140.5,75.11 		"/>
		<polyline class="st0" points="134.13,35.76 113.23,56.66 134.14,77.56 		"/>
		<line class="st0" x1="99.96" y1="56.66" x2="113.07" y2="56.66"/>
		<line class="st0" x1="130.94" y1="56.66" x2="149.13" y2="56.66"/>
	</g>
</g>
<g>
	<path class="st1" d="M4.63,65.72H2.47V44.48h12.81v1.92H4.63v7.35h9.9v1.92h-9.9V65.72z"/>
	<path class="st1" d="M25.39,65.72h-2.16V44.48h6.24c1.04,0,2,0.1,2.9,0.3c0.89,0.2,1.66,0.53,2.31,0.98
		c0.65,0.45,1.15,1.04,1.51,1.75c0.36,0.72,0.54,1.6,0.54,2.64c0,0.78-0.14,1.49-0.42,2.13c-0.28,0.64-0.66,1.2-1.14,1.67
		c-0.48,0.47-1.05,0.85-1.71,1.13c-0.66,0.28-1.38,0.46-2.16,0.54l6.21,10.11h-2.64l-5.88-9.93h-3.6V65.72z M25.39,53.93h3.75
		c1.74,0,3.08-0.32,4.02-0.95c0.94-0.63,1.41-1.57,1.41-2.83c0-0.7-0.13-1.29-0.39-1.77c-0.26-0.48-0.62-0.87-1.08-1.17
		c-0.46-0.3-1.02-0.52-1.68-0.66c-0.66-0.14-1.39-0.21-2.19-0.21h-3.84V53.93z"/>
	<path class="st1" d="M47.26,63.8h11.37v1.92H45.1V44.48h13.17v1.92H47.26v7.29h10.29v1.92H47.26V63.8z"/>
	<path class="st1" d="M68.92,63.8h11.37v1.92H66.76V44.48h13.17v1.92H68.92v7.29h10.29v1.92H68.92V63.8z"/>
</g>
<g>
	<path class="st1" d="M228.8,47.9c-0.46-0.64-1.05-1.15-1.77-1.54c-0.72-0.39-1.59-0.58-2.61-0.58c-0.52,0-1.05,0.08-1.59,0.24
		s-1.03,0.41-1.47,0.74c-0.44,0.33-0.79,0.75-1.06,1.24c-0.27,0.5-0.41,1.09-0.41,1.77s0.13,1.24,0.39,1.68
		c0.26,0.44,0.6,0.82,1.03,1.13c0.43,0.31,0.92,0.57,1.47,0.77c0.55,0.2,1.12,0.4,1.72,0.6c0.74,0.24,1.48,0.5,2.23,0.78
		s1.42,0.64,2.02,1.09s1.09,1.02,1.47,1.71c0.38,0.69,0.57,1.57,0.57,2.63c0,1.06-0.2,1.98-0.61,2.75c-0.4,0.77-0.93,1.41-1.58,1.91
		s-1.38,0.87-2.21,1.11c-0.83,0.24-1.67,0.36-2.5,0.36c-0.64,0-1.28-0.07-1.92-0.2c-0.64-0.13-1.25-0.33-1.83-0.58
		s-1.12-0.59-1.62-0.99c-0.5-0.4-0.94-0.86-1.32-1.38l1.86-1.38c0.46,0.76,1.1,1.4,1.93,1.91c0.83,0.51,1.8,0.76,2.93,0.76
		c0.54,0,1.09-0.08,1.65-0.25c0.56-0.17,1.07-0.43,1.51-0.78c0.45-0.35,0.82-0.78,1.11-1.29c0.29-0.51,0.44-1.11,0.44-1.79
		c0-0.74-0.15-1.36-0.44-1.85c-0.29-0.49-0.67-0.9-1.16-1.23c-0.48-0.33-1.03-0.6-1.65-0.83c-0.62-0.22-1.27-0.44-1.95-0.66
		c-0.7-0.22-1.39-0.47-2.07-0.75c-0.68-0.28-1.29-0.64-1.83-1.09s-0.97-1-1.3-1.67s-0.5-1.47-0.5-2.43c0-1.02,0.21-1.9,0.62-2.64
		c0.41-0.74,0.95-1.35,1.6-1.83c0.66-0.48,1.39-0.83,2.19-1.05c0.8-0.22,1.59-0.33,2.37-0.33c1.44,0,2.67,0.25,3.69,0.77
		c1.02,0.51,1.79,1.12,2.31,1.81L228.8,47.9z"/>
	<path class="st1" d="M239.33,44.48h6c1.08,0,2.06,0.12,2.94,0.35c0.88,0.23,1.63,0.58,2.26,1.05s1.12,1.06,1.46,1.77
		s0.51,1.54,0.51,2.5s-0.18,1.8-0.53,2.5c-0.35,0.71-0.84,1.3-1.47,1.77s-1.39,0.83-2.28,1.06c-0.89,0.24-1.88,0.36-2.96,0.36h-3.78
		v9.87h-2.16V44.48z M241.49,54.02h3.66c1.7,0,2.99-0.33,3.87-0.99c0.88-0.66,1.32-1.62,1.32-2.88c0-1.32-0.46-2.28-1.37-2.89
		s-2.19-0.92-3.83-0.92h-3.66V54.02z"/>
	<path class="st1" d="M262.79,65.72h-2.16V44.48h2.16V65.72z"/>
	<path class="st1" d="M274.49,65.72h-2.16V44.48h6.24c1.04,0,2,0.1,2.89,0.3c0.89,0.2,1.66,0.53,2.31,0.98
		c0.65,0.45,1.15,1.04,1.51,1.75s0.54,1.6,0.54,2.64c0,0.78-0.14,1.49-0.42,2.13c-0.28,0.64-0.66,1.2-1.14,1.67
		c-0.48,0.47-1.05,0.85-1.71,1.13c-0.66,0.28-1.38,0.46-2.16,0.54l6.21,10.11h-2.64l-5.88-9.93h-3.6V65.72z M274.49,53.93h3.75
		c1.74,0,3.08-0.32,4.02-0.95s1.41-1.57,1.41-2.83c0-0.7-0.13-1.29-0.39-1.77c-0.26-0.48-0.62-0.87-1.08-1.17
		c-0.46-0.3-1.02-0.52-1.68-0.66c-0.66-0.14-1.39-0.21-2.19-0.21h-3.84V53.93z"/>
	<path class="st1" d="M296.36,65.72h-2.16V44.48h2.16V65.72z"/>
	<path class="st1" d="M312.71,65.72h-2.16V46.4h-7.11v-1.92h16.38v1.92h-7.11V65.72z"/>
</g>
<g>
	<path class="st1" d="M63.03,85.13v8.43h-2.56v-8.43h-3v-2.19h8.56v2.19H63.03z"/>
	<path class="st1" d="M72.89,93.56l-2.31-4.21h-0.87v4.21h-2.5V82.94h4.05c0.51,0,1.01,0.05,1.49,0.16c0.48,0.11,0.92,0.28,1.3,0.53
		s0.69,0.58,0.92,0.99c0.23,0.41,0.34,0.92,0.34,1.53c0,0.72-0.19,1.33-0.58,1.82s-0.93,0.84-1.62,1.05l2.77,4.54H72.89z
		 M72.78,86.2c0-0.25-0.05-0.45-0.16-0.61c-0.11-0.15-0.24-0.27-0.41-0.36c-0.17-0.08-0.35-0.14-0.56-0.17s-0.4-0.04-0.6-0.04h-1.37
		v2.47h1.22c0.21,0,0.43-0.02,0.65-0.05c0.22-0.03,0.42-0.1,0.6-0.19c0.18-0.09,0.33-0.22,0.44-0.39
		C72.73,86.69,72.78,86.47,72.78,86.2z"/>
	<path class="st1" d="M84.35,93.56l-0.82-2.08h-4.11l-0.78,2.08h-2.79l4.46-10.62h2.49l4.41,10.62H84.35z M81.5,85.78l-1.35,3.65
		h2.67L81.5,85.78z"/>
	<path class="st1" d="M92.9,93.56h-2.56l-4.02-10.62h2.88l2.46,7.53h0.06l2.45-7.53h2.83L92.9,93.56z"/>
	<path class="st1" d="M97.86,93.56V82.94H105v2.16h-4.67v2.01h4.41v2.06h-4.41v2.2h4.94v2.19H97.86z"/>
	<path class="st1" d="M106.97,93.56V82.94h2.58v8.38h4.11v2.24H106.97z"/>
</g>
<g>
	<path class="st1" d="M195.18,93.56l-0.83-2.08h-4.11l-0.78,2.08h-2.79l4.46-10.62h2.49l4.41,10.62H195.18z M192.33,85.78
		l-1.35,3.65h2.67L192.33,85.78z"/>
	<path class="st1" d="M206.26,93.58c-0.7,0.17-1.45,0.25-2.27,0.25c-0.85,0-1.63-0.13-2.35-0.4c-0.71-0.27-1.33-0.65-1.84-1.14
		c-0.51-0.49-0.92-1.08-1.21-1.76c-0.29-0.69-0.44-1.45-0.44-2.29c0-0.85,0.15-1.62,0.44-2.31c0.29-0.69,0.7-1.28,1.22-1.76
		s1.13-0.86,1.83-1.12c0.7-0.26,1.46-0.39,2.26-0.39c0.84,0,1.62,0.13,2.34,0.38c0.72,0.25,1.3,0.6,1.75,1.03l-1.62,1.84
		c-0.25-0.29-0.58-0.53-0.99-0.71c-0.41-0.19-0.88-0.28-1.39-0.28c-0.45,0-0.87,0.08-1.25,0.25c-0.38,0.17-0.71,0.4-0.99,0.69
		c-0.28,0.29-0.5,0.64-0.65,1.05c-0.16,0.41-0.23,0.85-0.23,1.33c0,0.49,0.07,0.94,0.21,1.35c0.14,0.41,0.35,0.76,0.62,1.06
		c0.28,0.3,0.62,0.53,1.02,0.69c0.4,0.17,0.87,0.25,1.39,0.25c0.3,0,0.58-0.02,0.86-0.07c0.27-0.04,0.52-0.12,0.75-0.22v-1.94h-2.03
		v-2.07h4.38v5.63C207.56,93.19,206.96,93.41,206.26,93.58z"/>
	<path class="st1" d="M210.18,93.56V82.94h7.14v2.16h-4.67v2.01h4.41v2.06h-4.41v2.2h4.93v2.19H210.18z"/>
	<path class="st1" d="M226.04,93.56l-4.28-6.95h-0.04l0.06,6.95h-2.49V82.94h2.92l4.26,6.93h0.05l-0.06-6.93h2.49v10.62H226.04z"/>
	<path class="st1" d="M238.74,93.38c-0.69,0.32-1.49,0.47-2.38,0.47c-0.82,0-1.58-0.13-2.27-0.41c-0.7-0.27-1.3-0.65-1.81-1.15
		s-0.91-1.09-1.2-1.78c-0.29-0.69-0.43-1.45-0.43-2.28c0-0.85,0.15-1.62,0.44-2.31c0.29-0.69,0.7-1.28,1.22-1.76
		c0.52-0.49,1.13-0.86,1.83-1.12c0.7-0.26,1.45-0.39,2.26-0.39c0.75,0,1.49,0.13,2.21,0.4c0.73,0.27,1.31,0.65,1.76,1.16l-1.74,1.74
		c-0.24-0.33-0.56-0.57-0.95-0.73c-0.39-0.16-0.79-0.24-1.2-0.24c-0.45,0-0.86,0.08-1.24,0.25c-0.38,0.16-0.7,0.39-0.97,0.68
		c-0.27,0.29-0.48,0.63-0.63,1.03c-0.15,0.39-0.22,0.83-0.22,1.3c0,0.48,0.07,0.92,0.22,1.32s0.36,0.74,0.62,1.03
		c0.27,0.29,0.58,0.51,0.95,0.67c0.37,0.16,0.77,0.24,1.21,0.24c0.51,0,0.96-0.1,1.33-0.3s0.68-0.46,0.92-0.78l1.79,1.68
		C240.01,92.63,239.43,93.06,238.74,93.38z"/>
	<path class="st1" d="M246.56,89.06v4.5h-2.57v-4.5L240,82.94h3.1l2.26,3.93l2.27-3.93h3L246.56,89.06z"/>
</g>
</svg>
